<svg role="img" aria-hidden="true" width=\"24\" height="24" viewBox="0 0 24 24" fill="none" xmlns="http://www.w3.org/2000/svg">
<g id="Icon / Candidate &#38; HR / &#208;&#148;&#208;&#176;&#209;&#130;&#208;&#176; &#209;&#128;&#208;&#190;&#208;&#182;&#208;&#180;.">
<g id="icon">
<path id="Vector" d="M19 4H5C3.89543 4 3 4.89543 3 6V20C3 21.1046 3.89543 22 5 22H19C20.1046 22 21 21.1046 21 20V6C21 4.89543 20.1046 4 19 4Z" stroke="#E2E8F0" stroke-width="1.5" stroke-linecap="round" stroke-linejoin="round"/>
<path id="Vector_2" d="M16 2V6" stroke="#E2E8F0" stroke-width="1.5" stroke-linecap="round" stroke-linejoin="round"/>
<path id="Vector_3" d="M8 2V6" stroke="#E2E8F0" stroke-width="1.5" stroke-linecap="round" stroke-linejoin="round"/>
<path id="Vector_4" d="M3 10H21" stroke="#E2E8F0" stroke-width="1.5" stroke-linecap="round" stroke-linejoin="round"/>
<path id="Vector_5" d="M8 16C8.55228 16 9 15.5523 9 15C9 14.4477 8.55228 14 8 14C7.44772 14 7 14.4477 7 15C7 15.5523 7.44772 16 8 16Z" stroke="#E2E8F0" stroke-width="1.5" stroke-linecap="round" stroke-linejoin="round"/>
</g>
</g>
</svg>
