<svg role="img" aria-hidden="true" width=\"24\" height="24" viewBox="0 0 24 24" fill="none" xmlns="http://www.w3.org/2000/svg">
<g id="Icon / Documents / ID &#208;&#186;&#208;&#176;&#209;&#128;&#209;&#130;&#208;&#176;">
<g id="icon">
<path id="Vector" d="M20 5H4C2.89543 5 2 5.89543 2 7V17C2 18.1046 2.89543 19 4 19H20C21.1046 19 22 18.1046 22 17V7C22 5.89543 21.1046 5 20 5Z" stroke="#E2E8F0" stroke-width="1.5" stroke-linecap="round" stroke-linejoin="round"/>
<path id="Vector_2" d="M8 12C9.10457 12 10 11.1046 10 10C10 8.89543 9.10457 8 8 8C6.89543 8 6 8.89543 6 10C6 11.1046 6.89543 12 8 12Z" stroke="#E2E8F0" stroke-width="1.5" stroke-linecap="round" stroke-linejoin="round"/>
<path id="Vector_3" d="M5 14C5 12.9 5.9 12 7 12H9C9.53043 12 10.0391 12.2107 10.4142 12.5858C10.7893 12.9609 11 13.4696 11 14" stroke="#E2E8F0" stroke-width="1.5" stroke-linecap="round" stroke-linejoin="round"/>
<path id="Vector_4" d="M14 10H19" stroke="#E2E8F0" stroke-width="1.5" stroke-linecap="round" stroke-linejoin="round"/>
<path id="Vector_5" d="M14 14H17" stroke="#E2E8F0" stroke-width="1.5" stroke-linecap="round" stroke-linejoin="round"/>
</g>
</g>
</svg>
