<svg role="img" aria-hidden="true" width=\"24\" height="24" viewBox="0 0 24 24" fill="none" xmlns="http://www.w3.org/2000/svg">
<g id="Icon / Documents / &#208;&#154;&#208;&#190;&#208;&#180; 95">
<g id="icon">
<path id="Vector" d="M20 5H4C2.89543 5 2 5.89543 2 7V17C2 18.1046 2.89543 19 4 19H20C21.1046 19 22 18.1046 22 17V7C22 5.89543 21.1046 5 20 5Z" stroke="#E2E8F0" stroke-width="1.5" stroke-linecap="round" stroke-linejoin="round"/>
<path id="Vector_2" d="M8 10H10V14H8M12 10H14C14.5304 10 15.0391 10.2107 15.4142 10.5858C15.7893 10.9609 16 11.4696 16 12C16 12.5304 15.7893 13.0391 15.4142 13.4142C15.0391 13.7893 14.5304 14 14 14H12" stroke="#E2E8F0" stroke-width="1.5" stroke-linecap="round" stroke-linejoin="round"/>
</g>
</g>
</svg>
