<svg role="img" aria-hidden="true" width=\"24\" height="24" viewBox="0 0 24 24" fill="none" xmlns="http://www.w3.org/2000/svg">
<g id="Icon / Automation / &#208;&#160;&#208;&#190;&#208;&#177;&#208;&#190;&#209;&#130;">
<g id="icon">
<path id="Vector" d="M19 11H5C3.89543 11 3 11.8954 3 13V19C3 20.1046 3.89543 21 5 21H19C20.1046 21 21 20.1046 21 19V13C21 11.8954 20.1046 11 19 11Z" stroke="#0F172A" stroke-width="1.5" stroke-linecap="round" stroke-linejoin="round"/>
<path id="Vector_2" d="M12 3C11.4696 3 10.9609 3.21071 10.5858 3.58579C10.2107 3.96086 10 4.46957 10 5V11H14V5C14 4.46957 13.7893 3.96086 13.4142 3.58579C13.0391 3.21071 12.5304 3 12 3Z" stroke="#0F172A" stroke-width="1.5" stroke-linecap="round" stroke-linejoin="round"/>
<path id="Vector_3" d="M8 16H8.01" stroke="#0F172A" stroke-width="1.5" stroke-linecap="round" stroke-linejoin="round"/>
<path id="Vector_4" d="M16 16H16.01" stroke="#0F172A" stroke-width="1.5" stroke-linecap="round" stroke-linejoin="round"/>
<path id="Vector_5" d="M2 11V10C2 9.46957 2.21071 8.96086 2.58579 8.58579C2.96086 8.21071 3.46957 8 4 8H5M22 11V10C22 9.46957 21.7893 8.96086 21.4142 8.58579C21.0391 8.21071 20.5304 8 20 8H19" stroke="#0F172A" stroke-width="1.5" stroke-linecap="round" stroke-linejoin="round"/>
</g>
</g>
</svg>
